<svg version="1" xmlns="http://www.w3.org/2000/svg" width="300" height="300" viewBox="0 0 225.000000 225.000000"><path d="M86 31c-37.5 8-65.9 35-75.5 71.6-5.7 21.8-3.5 45.8 6 66l3.7 7.9 1.8-5.7c3.1-9.9 11.6-18.9 20.8-21.9 4.2-1.4 13.5-1.7 17.3-.7 2.6.8 2.6.7 3.3-5.4 1.6-16.1 14.1-30.8 30.1-35.7l5.5-1.7L88.5 95C82.7 89.4 78 84.4 78 84.1c0-.4 4.8-5.4 10.6-11.1l10.6-10.5-.4-13.8-.3-13.7h14.1c11.3 0 14.4-.3 15.4-1.5 1.5-1.8 1.1-2-7.4-3.5-9-1.5-25-1.1-34.6 1zM143.8 41.7c2.3.2 5.9.2 8 0 2-.2.1-.4-4.3-.4-4.4 0-6.1.2-3.7.4zM136.8 42.7c.7.3 1.6.2 1.9-.1.4-.3-.2-.6-1.3-.5-1.1 0-1.4.3-.6.6zM156.8 42.7c.7.3 1.6.2 1.9-.1.4-.3-.2-.6-1.3-.5-1.1 0-1.4.3-.6.6zM163.1 44.4c1 .9 6.9 3.6 6.9 3.2 0-.6-5.5-3.6-6.6-3.6-.4 0-.5.2-.3.4zM127.5 46c-.3.6.1.7.9.4 1.8-.7 2.1-1.4.7-1.4-.6 0-1.3.4-1.6 1z"/><path d="M121.9 49.7c-1.3 1.6-1.2 1.7.4.4.9-.7 1.7-1.5 1.7-1.7 0-.8-.8-.3-2.1 1.3zM177.5 54c2.1 2.2 4.1 4 4.4 4 .3 0-1.3-1.8-3.4-4-2.1-2.2-4.1-4-4.4-4-.3 0 1.3 1.8 3.4 4zM116.9 53.7l-2.4 2.8 2.8-2.4c2.5-2.3 3.2-3.1 2.4-3.1-.2 0-1.4 1.2-2.8 2.7zM185.7 65.5c.9 1.9 1.8 3.3 2.1 3.1.4-.5-2.6-6.6-3.3-6.6-.3 0 .3 1.6 1.2 3.5zM106.6 69.5c-.3.9-.6 2.2-.5 2.8 0 .7.5.1 1-1.2s.8-2.6.5-2.8c-.2-.2-.6.3-1 1.2zM189.1 74.6c0 1.1.3 1.4.6.6.3-.7.2-1.6-.1-1.9-.3-.4-.6.2-.5 1.3zM105.1 75.6c0 1.1.3 1.4.6.6.3-.7.2-1.6-.1-1.9-.3-.4-.6.2-.5 1.3zM190.2 83.2c-.2 7.6-2.8 16.7-6.5 23-3.5 6-11.7 13.5-18 16.3-6.1 2.8-17.6 5-21.3 4.1-2.3-.6-2.4-.5-1.4 1.5 1.1 2 1.8 2.1 8.6 1.7 13.9-.9 27.5-10.1 33.8-22.8 3.4-6.7 5.8-17.7 5.3-24.5l-.3-6-.2 6.7zM104.3 83.5c0 2.7.2 3.8.4 2.2.2-1.5.2-3.7 0-5-.2-1.2-.4 0-.4 2.8zM105.1 90.5c-.1 2.9 2.6 12.6 3.8 13.8 1.4 1.4 1.4.5 0-3-.7-1.5-1.8-5.1-2.5-7.8-.7-2.8-1.3-4.1-1.3-3zM198 103.5c-.8 1-1.2 5.7-1.1 15.5l.2 14H168.4l-6.7 6.8c-3.7 3.7-6.7 7-6.7 7.2 0 .3 2.5.6 5.6.7 3 .1 7.5 1.1 9.9 2.2 8.8 3.9 17 13.8 19 22.9.7 3.3.7 3.3 2.2 1.2 2.7-3.8 8.1-18.3 9.8-26.5 2.2-9.8 2.4-28.3.5-38.3-1.4-7.5-1.9-8.2-4-5.7zM148.2 147c0 1.4.2 1.9.5 1.2.2-.6.2-1.8 0-2.5-.3-.6-.5-.1-.5 1.3z"/></svg>