<?xml version="1.0" standalone="no"?>
<!DOCTYPE svg PUBLIC "-//W3C//DTD SVG 20010904//EN"
 "http://www.w3.org/TR/2001/REC-SVG-20010904/DTD/svg10.dtd">
<svg version="1.0" xmlns="http://www.w3.org/2000/svg"
 width="225.000000pt" height="225.000000pt" viewBox="0 0 225.000000 225.000000"
 preserveAspectRatio="xMidYMid meet">
<metadata>
Created by potrace 1.11, written by Peter Selinger 2001-2013
</metadata>
<g transform="translate(0.000000,225.000000) scale(0.100000,-0.100000)"
fill="#000000" stroke="none">
<path d="M925 1954 c-462 -74 -790 -415 -845 -878 -21 -174 12 -354 96 -530
l28 -60 17 56 c40 137 158 230 294 232 33 1 72 -2 86 -6 26 -8 26 -7 33 54 16
161 164 331 314 363 17 3 32 10 32 14 0 4 -47 53 -104 109 l-103 100 103 103
104 104 0 142 0 143 144 0 c112 0 146 3 155 14 10 12 6 17 -26 26 -40 12 -277
22 -328 14z"/>
<path d="M1071 1255 c0 -5 6 -21 14 -35 8 -14 14 -20 14 -15 0 6 -6 21 -14 35
-8 14 -14 21 -14 15z"/>
<path d="M1871 1249 c-1 -9 -20 -45 -42 -78 -74 -111 -190 -178 -326 -188 -55
-4 -70 -9 -66 -19 12 -32 171 -5 252 43 25 14 64 46 88 71 47 48 107 155 99
175 -2 7 -5 5 -5 -4z"/>
<path d="M1988 1213 c-15 -17 -18 -40 -18 -161 l0 -142 -143 0 -143 0 -66 -67
-67 -68 53 -2 c127 -3 246 -100 285 -230 l17 -56 37 80 c62 133 89 255 88 408
0 72 -6 159 -13 194 -13 61 -14 63 -30 44z"/>
</g>
</svg>
